<?xml version="1.0" standalone="no"?>
<!DOCTYPE svg PUBLIC "-//W3C//DTD SVG 20010904//EN"
 "http://www.w3.org/TR/2001/REC-SVG-20010904/DTD/svg10.dtd">
<svg version="1.0" xmlns="http://www.w3.org/2000/svg"
 width="512.000000pt" height="512.000000pt" viewBox="0 0 512.000000 512.000000"
 preserveAspectRatio="xMidYMid meet">
<metadata>
Created by potrace 1.14, written by Peter Selinger 2001-2017
</metadata>
<g transform="translate(0.000000,512.000000) scale(0.100000,-0.100000)"
fill="#000000" stroke="none">
<path d="M3787 4934 c-4 -4 -23 -8 -43 -10 -20 -2 -41 -7 -48 -13 -6 -5 -57
-32 -114 -60 -56 -29 -100 -56 -97 -62 4 -5 1 -8 -6 -7 -12 3 -15 -2 -18 -36
0 -8 -9 -17 -18 -21 -15 -5 -16 -4 -5 6 6 7 12 17 12 21 0 5 -11 -2 -23 -14
-16 -15 -20 -25 -13 -30 6 -4 -1 -8 -16 -8 -30 0 -39 -9 -43 -46 -3 -30 -5
-33 -33 -37 -12 -2 -24 -6 -28 -10 -4 -3 5 -4 19 -2 17 3 25 1 23 -7 -3 -24
-17 -39 -34 -36 -9 2 -16 -3 -14 -10 1 -6 -1 -11 -5 -10 -5 1 -30 -18 -57 -42
-26 -25 -56 -44 -65 -42 -12 2 -13 1 -3 -6 10 -7 9 -14 -6 -33 -11 -13 -17
-30 -14 -38 3 -9 0 -11 -7 -7 -17 11 -39 -11 -46 -45 -4 -16 -15 -35 -26 -43
-11 -7 -19 -17 -18 -22 4 -21 -2 -35 -11 -29 -6 3 -15 -6 -21 -22 -13 -35 -39
-64 -50 -57 -5 3 -9 -2 -9 -11 0 -9 -7 -23 -15 -31 -18 -18 -20 -38 -3 -28 7
4 8 3 4 -5 -4 -6 -11 -9 -16 -6 -14 8 -148 -213 -221 -365 -26 -52 -43 -111
-59 -195 -12 -66 -30 -142 -41 -170 -10 -27 -21 -71 -25 -97 -3 -27 -10 -48
-15 -48 -5 0 -9 -10 -9 -22 0 -12 3 -18 7 -15 3 4 12 2 19 -3 8 -8 16 -7 26 3
8 9 21 11 33 6 30 -12 35 -10 35 9 0 14 2 15 10 2 6 -10 26 -15 59 -16 57 0
115 -34 144 -84 19 -31 42 -39 50 -17 3 7 6 4 6 -7 1 -15 4 -16 16 -6 13 11
15 10 9 -6 -5 -16 -4 -16 5 -4 14 19 14 50 0 50 -5 0 -7 5 -4 10 4 6 1 18 -7
27 -8 10 -8 14 -1 10 14 -9 23 16 28 75 2 24 8 62 13 86 6 24 6 42 1 42 -14 0
-10 28 10 71 l19 39 -24 -4 c-13 -3 -24 0 -24 6 0 5 7 7 16 4 12 -5 15 -2 10
9 -3 9 -2 14 3 11 5 -3 11 3 14 14 3 11 1 18 -4 14 -12 -7 -12 29 0 41 15 16
25 59 12 51 -16 -10 -13 16 5 42 8 12 12 22 7 22 -4 0 -2 4 6 9 8 5 16 19 18
32 2 12 9 29 16 38 10 12 9 14 -5 8 -22 -8 -24 6 -4 23 8 6 12 18 9 27 -3 8
-2 18 3 22 19 13 34 49 22 53 -6 2 -4 10 6 21 10 9 13 17 7 17 -17 0 0 30 18
31 9 0 11 3 4 5 -8 4 -6 18 8 50 10 25 19 53 19 61 0 23 49 104 59 98 5 -2 15
3 22 13 13 15 12 16 -3 3 -32 -24 -21 14 15 55 17 21 31 39 30 41 -9 11 3 29
48 75 28 28 51 60 52 70 1 10 5 18 9 18 6 0 39 53 43 70 6 21 23 52 52 93 18
26 33 50 33 53 0 3 14 23 30 44 17 21 30 43 30 50 0 16 112 121 161 151 21 13
41 30 43 37 6 13 3 16 -7 6z m-262 -194 c-3 -5 -11 -10 -16 -10 -6 0 -7 5 -4
10 3 6 11 10 16 10 6 0 7 -4 4 -10z m-24 -26 c8 4 7 2 -2 -6 -9 -7 -16 -17
-16 -21 -2 -20 -45 -58 -60 -53 -24 10 -53 -3 -46 -20 3 -7 0 -14 -5 -14 -13
0 -6 44 8 48 5 2 10 8 10 13 0 4 -7 5 -17 2 -11 -4 -14 -3 -9 6 4 6 16 9 26 6
11 -3 20 0 24 10 3 10 11 13 18 9 10 -6 10 -4 0 8 -11 14 -10 16 6 11 11 -2
23 1 27 7 6 9 9 9 15 0 4 -7 14 -9 21 -6z m39 -18 c0 -2 -7 -9 -15 -16 -13
-11 -14 -10 -9 4 5 14 24 23 24 12z m-55 -76 c-16 -11 -25 -20 -20 -21 6 0 -1
-5 -15 -11 -21 -9 -22 -12 -7 -15 14 -4 16 -8 6 -19 -12 -15 -49 -19 -49 -6 0
4 5 13 12 20 7 7 9 12 5 12 -4 0 7 13 25 30 18 16 42 30 53 30 17 0 15 -4 -10
-20z m-65 0 c0 -5 -5 -10 -11 -10 -5 0 -7 5 -4 10 3 6 8 10 11 10 2 0 4 -4 4
-10z m-29 -48 c-6 -12 -5 -23 5 -36 16 -23 12 -32 -29 -52 l-32 -16 30 32 c28
30 28 32 5 19 -14 -8 -28 -18 -32 -24 -5 -6 -8 -5 -8 2 0 7 8 20 19 30 10 10
24 28 30 41 6 12 14 22 17 22 2 0 0 -8 -5 -18z m-151 -107 c-13 -14 -27 -25
-32 -25 -4 0 2 11 14 25 12 14 26 25 32 25 5 0 -1 -11 -14 -25z m26 -70 c-3
-17 -16 -32 -17 -19 0 5 -2 17 -4 26 -2 10 2 15 10 12 7 -3 12 -12 11 -19z
m-5 -108 c-13 -33 -47 -53 -55 -32 -3 8 0 17 6 21 7 4 8 3 4 -4 -4 -7 -2 -12
4 -12 6 0 19 13 28 29 20 35 26 34 13 -2z m-51 -61 c0 -3 -4 -8 -10 -11 -5 -3
-10 -1 -10 4 0 6 5 11 10 11 6 0 10 -2 10 -4z m-337 -251 c-3 -9 -8 -14 -10
-11 -3 3 -2 9 2 15 9 16 15 13 8 -4z m-13 -39 c0 -3 -4 -8 -10 -11 -5 -3 -10
-1 -10 4 0 6 5 11 10 11 6 0 10 -2 10 -4z m170 -10 c0 -2 -8 -10 -17 -17 -16
-13 -17 -12 -4 4 13 16 21 21 21 13z m-103 -383 c-3 -10 -5 -2 -5 17 0 19 2
27 5 18 2 -10 2 -26 0 -35z m-46 -124 c-5 -13 -10 -19 -10 -12 -1 15 10 45 15
40 3 -2 0 -15 -5 -28z m111 -1 c-5 -7 -13 -28 -17 -45 -6 -31 -21 -50 -31 -41
-5 6 16 69 29 86 5 6 14 12 19 12 7 0 7 -4 0 -12z m-65 -55 c-3 -10 -5 -2 -5
17 0 19 2 27 5 18 2 -10 2 -26 0 -35z m-30 -15 c-3 -8 -6 -5 -6 6 -1 11 2 17
5 13 3 -3 4 -12 1 -19z m93 -21 c0 -7 -7 -22 -15 -33 -12 -16 -16 -17 -24 -4
-7 10 -5 19 7 32 21 21 32 22 32 5z m-23 -79 c-3 -8 -6 -5 -6 6 -1 11 2 17 5
13 3 -3 4 -12 1 -19z m-45 -76 c3 -11 0 -19 -8 -19 -15 0 -19 19 -7 30 9 10
10 9 15 -11z m41 -2 c-3 -11 -9 -20 -13 -20 -5 0 -6 9 -3 20 3 11 9 20 13 20
5 0 6 -9 3 -20z"/>
<path d="M3460 4699 c0 -15 -23 -36 -46 -42 -18 -4 -18 -5 1 -6 11 0 27 5 36
12 19 15 32 47 19 47 -6 0 -10 -5 -10 -11z"/>
<path d="M3878 4908 c4 -18 2 -20 -14 -14 -10 4 -15 4 -12 0 4 -4 3 -15 -3
-25 -12 -23 -3 -25 17 -4 22 22 32 19 30 -9 -1 -20 -4 -22 -15 -13 -12 10 -14
9 -8 -5 3 -10 2 -18 -4 -18 -6 0 -8 -4 -4 -9 3 -5 -5 -17 -17 -25 -12 -9 -19
-16 -15 -16 4 0 3 -9 -3 -20 -6 -11 -14 -18 -19 -16 -4 3 -20 -8 -35 -25 -27
-29 -66 -39 -66 -18 0 6 7 9 15 5 8 -3 15 -1 15 3 0 5 -7 11 -15 15 -17 6 -10
35 14 53 19 15 41 17 41 3 0 -5 -7 -7 -15 -4 -8 4 -15 2 -15 -4 0 -25 30 -19
44 9 16 32 12 63 -8 53 -6 -3 3 5 19 19 23 20 25 25 10 21 -31 -8 -101 -59
-95 -69 3 -6 9 -9 14 -7 5 2 3 -4 -4 -13 -9 -11 -15 -13 -20 -4 -6 8 -9 8 -14
0 -4 -6 -1 -11 6 -11 7 0 -4 -10 -25 -23 -38 -23 -101 -102 -72 -91 8 4 15 3
15 0 0 -4 -11 -11 -25 -16 -14 -5 -28 -18 -32 -27 -3 -10 -13 -26 -21 -35 -10
-12 -11 -18 -4 -18 7 0 12 4 12 10 0 5 11 12 24 16 15 3 29 17 35 35 5 16 15
29 21 29 6 0 9 4 6 9 -3 5 1 12 10 15 24 9 26 8 14 -13 -13 -26 -13 -29 7 -33
13 -2 11 -7 -13 -22 -24 -16 -27 -17 -15 -3 8 10 11 20 8 24 -9 8 -38 -17 -31
-28 3 -5 0 -9 -5 -9 -6 0 -11 -7 -11 -15 0 -7 -6 -18 -14 -22 -7 -4 -26 -24
-42 -43 -16 -19 -22 -30 -14 -24 8 6 51 22 95 35 l80 23 -40 12 -40 11 50 12
c28 7 57 13 65 15 8 1 25 6 38 10 14 5 29 3 37 -4 8 -7 15 -9 15 -6 0 13 -28
36 -44 36 -23 0 -20 17 3 23 11 3 22 -1 24 -8 8 -19 69 -6 74 16 3 11 12 19
20 19 10 0 12 6 8 21 -4 12 -3 24 1 28 13 9 44 79 44 98 0 36 -24 94 -37 89
-7 -3 -12 0 -10 5 1 6 -8 13 -20 15 -17 3 -20 0 -15 -18z m-78 -110 c0 -4 -9
-8 -19 -8 -11 0 -22 4 -25 8 -2 4 6 8 20 8 13 0 24 -4 24 -8z m-97 -93 c-3 -9
0 -22 6 -29 10 -12 8 -13 -8 -9 -12 3 -21 9 -21 14 0 5 -10 9 -22 10 -22 1
-22 1 2 9 14 4 21 9 15 9 -5 1 -3 5 5 10 18 12 31 5 23 -14z m35 -92 c-10 -2
-26 -2 -35 0 -10 3 -2 5 17 5 19 0 27 -2 18 -5z m-123 -83 c-3 -5 -14 -10 -23
-10 -15 0 -15 2 -2 10 20 13 33 13 25 0z"/>
<path d="M3825 4900 c-3 -5 -1 -10 4 -10 6 0 11 5 11 10 0 6 -2 10 -4 10 -3 0
-8 -4 -11 -10z"/>
<path d="M592 4843 c-9 -22 -9 -157 0 -200 3 -18 25 -73 48 -122 22 -50 54
-132 71 -182 16 -50 56 -144 88 -208 33 -64 86 -174 120 -244 67 -142 119
-233 165 -289 80 -98 232 -259 249 -264 14 -4 16 -9 8 -14 -8 -4 23 -39 88
-99 107 -99 159 -168 239 -321 55 -105 71 -147 52 -135 -6 4 -1 -13 12 -36 13
-24 23 -51 24 -59 1 -8 4 -27 8 -42 5 -15 3 -35 -4 -47 -9 -18 -8 -21 7 -21
13 0 14 -3 6 -8 -9 -6 -8 -12 6 -24 21 -18 19 -31 -23 -146 -11 -32 -15 -80
-15 -183 l1 -139 28 -22 29 -23 -21 -33 c-14 -23 -27 -32 -39 -29 -12 3 -16 0
-12 -9 3 -8 10 -14 17 -14 8 0 8 -2 0 -8 -32 -20 -115 -209 -129 -292 -4 -25
-9 -52 -10 -60 -8 -46 -16 -190 -11 -190 4 0 24 12 44 26 l37 26 -35 -30 c-19
-18 -38 -32 -42 -32 -5 0 -8 -9 -8 -21 0 -11 4 -18 10 -14 5 3 3 -7 -5 -22 -8
-15 -15 -34 -15 -42 0 -8 -8 -24 -17 -35 -10 -12 -11 -15 -3 -9 8 7 17 13 20
13 10 0 3 -145 -9 -183 -7 -21 -11 -47 -8 -58 3 -10 1 -17 -4 -13 -5 3 -10 0
-10 -5 -1 -6 -2 -14 -4 -18 -1 -5 -5 -26 -10 -48 -4 -22 -13 -49 -18 -60 -6
-11 -11 -23 -12 -27 0 -3 -3 -10 -8 -14 -12 -12 -8 -26 6 -19 6 4 5 1 -3 -7
-16 -14 -24 -48 -22 -88 2 -40 2 -54 0 -75 -2 -16 3 -20 24 -20 24 1 26 -1 13
-15 -17 -19 -20 -86 -5 -95 8 -5 7 -12 -1 -22 -11 -12 -10 -14 6 -11 31 5 28
-70 -4 -101 -14 -13 -27 -19 -28 -14 -4 12 -63 4 -82 -11 -12 -9 -13 -8 -7 3
7 10 3 12 -14 6 -15 -5 -26 -2 -32 6 -6 10 -7 7 -3 -9 7 -23 6 -23 -17 -8 -26
17 -45 11 -28 -9 7 -8 5 -12 -5 -12 -8 0 -12 4 -9 9 3 4 1 8 -5 8 -5 0 -12 -6
-14 -12 -4 -10 -6 -10 -6 0 -1 6 -9 12 -18 12 -13 0 -14 -3 -5 -12 7 -7 12
-19 12 -28 0 -11 -6 -8 -19 9 -11 15 -21 20 -25 13 -4 -6 -13 -9 -20 -6 -7 3
-18 -1 -24 -8 -15 -18 18 -41 39 -27 11 8 10 9 -5 7 -10 -2 -21 3 -24 11 -3
10 0 12 13 7 11 -4 22 -1 27 6 5 9 8 6 8 -9 0 -28 -15 -37 -60 -35 -30 1 -32
0 -12 -8 33 -14 27 -20 -10 -9 -17 5 -34 7 -36 4 -2 -2 7 -7 22 -11 14 -3 26
-12 26 -20 0 -17 17 -18 23 -1 4 7 6 6 6 -5 1 -9 -5 -19 -11 -21 -10 -4 -10
-6 -1 -6 6 -1 15 4 18 9 3 5 11 10 17 10 7 0 7 -4 -1 -14 -9 -11 -5 -12 27 -6
39 7 65 3 58 -9 -3 -4 4 -7 14 -7 10 0 16 4 14 8 -3 4 0 8 5 8 6 0 11 -4 11
-10 0 -5 5 -10 11 -10 5 0 7 6 3 13 -5 8 -2 8 9 -2 13 -10 17 -10 17 -1 0 9 4
9 13 2 23 -20 525 -32 1347 -32 589 -1 707 4 703 28 -2 7 3 12 11 12 29 0 26
31 -5 60 -17 15 -28 33 -25 39 4 6 2 11 -4 11 -6 0 -8 5 -4 12 5 8 -3 9 -29 5
-30 -5 -39 -2 -47 14 -6 10 -22 22 -35 25 -17 4 -25 13 -25 28 0 17 2 18 10 6
8 -12 10 -9 10 12 0 30 -20 50 -21 21 0 -16 -2 -15 -16 4 -8 13 -19 23 -24 23
-14 0 -49 -39 -49 -54 0 -16 -36 -11 -47 7 -4 6 0 8 11 4 20 -8 33 17 18 36
-6 6 -10 14 -9 17 1 3 -10 18 -24 34 l-27 28 5 -26 c3 -15 1 -26 -6 -26 -6 0
-11 -9 -11 -20 0 -11 -4 -20 -10 -20 -5 0 -10 6 -10 13 0 8 -4 7 -10 -3 -8
-13 -10 -13 -10 2 0 18 -38 50 -50 43 -4 -3 -13 2 -20 10 -11 13 -10 14 3 9
32 -12 37 6 13 44 -15 23 -23 53 -23 78 0 23 -6 49 -12 60 -10 16 -11 12 -7
-23 6 -40 5 -41 -18 -37 -14 2 -28 0 -31 -6 -13 -21 -24 -9 -18 21 6 30 5 31
-18 19 -13 -7 -33 -20 -44 -29 -12 -9 -15 -10 -8 -1 18 20 16 35 -2 20 -8 -7
-28 -14 -44 -16 -32 -4 -45 13 -34 44 6 16 5 16 -14 -1 -19 -16 -21 -16 -27
-2 -3 9 -6 26 -6 37 0 20 -1 20 -19 4 -14 -13 -21 -14 -27 -5 -4 8 -3 10 4 5
7 -4 12 -2 12 3 0 6 -5 11 -11 11 -6 0 -8 7 -5 17 6 14 3 14 -16 -3 l-22 -19
17 27 c10 16 13 28 8 28 -5 0 -13 -4 -16 -10 -3 -5 -11 -10 -16 -10 -6 0 -2
14 8 30 9 16 21 30 26 30 5 0 4 -7 -3 -15 -8 -10 -9 -15 -1 -15 6 0 14 12 17
26 5 19 9 22 15 12 7 -10 9 -10 9 2 0 8 11 28 25 44 28 32 33 45 10 26 -8 -6
-18 -9 -23 -6 -5 3 -38 -23 -73 -59 -48 -47 -68 -62 -79 -55 -12 8 -12 11 1
27 24 27 34 47 21 39 -7 -4 -12 -2 -12 3 0 6 4 11 10 11 5 0 14 17 20 38 6 20
17 46 25 56 20 26 19 42 -1 22 -8 -9 -22 -36 -30 -60 -9 -25 -22 -50 -30 -57
-8 -6 -14 -19 -14 -29 0 -10 -6 -23 -14 -29 -22 -19 -24 -56 -4 -81 28 -35 21
-49 -8 -15 l-25 30 15 -31 c17 -36 11 -75 -10 -67 -9 3 -14 -1 -14 -12 0 -12
-5 -15 -20 -10 -15 5 -18 3 -14 -9 3 -9 12 -16 18 -16 19 0 35 -21 29 -37 -4
-11 -9 -9 -21 8 -15 21 -16 21 -29 4 -12 -18 -13 -18 -13 4 0 13 -15 37 -36
57 -43 39 -48 41 -41 14 10 -39 -11 -19 -32 30 -12 28 -23 50 -24 50 -1 0 -3
-22 -4 -50 -2 -41 1 -52 19 -64 12 -9 20 -18 17 -20 -3 -3 -18 7 -33 21 -26
24 -30 25 -41 10 -21 -29 -41 6 -37 65 3 39 1 48 -12 48 -11 0 -16 -10 -17
-35 -1 -19 -2 -38 -3 -42 -7 -32 -19 -52 -32 -57 -13 -5 -15 -1 -11 16 9 36
20 164 14 158 -3 -3 -8 -28 -12 -55 -9 -83 -17 -115 -27 -115 -5 0 -7 -4 -4
-9 3 -5 -1 -12 -10 -15 -13 -5 -15 -1 -10 21 16 79 27 166 22 180 -14 37 -31
-27 -29 -110 1 -32 -2 -45 -9 -41 -7 5 -9 1 -5 -9 4 -10 1 -17 -6 -17 -9 0
-13 21 -13 75 1 41 4 75 9 75 4 0 7 16 7 36 0 21 -4 33 -10 29 -6 -4 -8 -11
-5 -16 4 -5 2 -9 -3 -9 -14 0 -32 -56 -32 -95 0 -18 -9 -52 -20 -76 -11 -24
-20 -54 -20 -65 0 -21 -26 -51 -36 -42 -2 3 4 27 14 54 18 46 39 174 28 174
-2 0 -10 -24 -16 -52 -13 -64 -69 -184 -70 -151 0 12 9 46 19 75 24 64 34 113
33 153 0 19 2 25 7 16 6 -8 11 4 16 34 5 35 3 50 -7 56 -8 5 -14 4 -17 -4 -2
-7 -12 -31 -22 -54 -11 -23 -18 -46 -17 -50 2 -9 -32 -83 -38 -83 -2 0 -4 9
-4 21 0 11 5 17 10 14 6 -3 10 -1 10 4 0 6 -5 11 -10 11 -7 0 -7 6 -1 18 16
30 40 123 31 117 -6 -4 -10 -13 -10 -21 0 -8 -5 -12 -10 -9 -6 4 -13 -7 -16
-24 -4 -17 -13 -36 -21 -42 -11 -10 -12 -8 -3 16 6 16 8 36 4 44 -5 13 -8 12
-15 -7 -17 -45 -27 -21 -13 36 16 70 17 75 4 67 -16 -10 -12 1 15 41 14 20 25
44 25 53 0 9 7 25 15 35 8 11 15 26 15 34 0 13 59 93 118 161 19 21 18 18 -4
-17 -21 -32 -28 -58 -30 -100 -1 -31 -6 -58 -13 -60 -14 -5 -15 -49 -1 -57 6
-3 7 1 4 9 -4 10 -1 16 7 16 12 0 12 2 1 9 -11 7 -11 9 2 14 9 4 16 16 16 27
0 11 6 23 14 26 9 3 12 12 9 21 -5 11 -3 14 6 8 8 -5 11 -20 7 -44 l-5 -36 13
40 c7 22 9 42 5 43 -5 2 -9 11 -9 20 0 13 2 14 9 3 7 -10 13 -11 30 -2 25 14
25 12 5 -38 -12 -30 -13 -48 -6 -68 l9 -28 7 32 c4 18 12 33 17 33 6 0 8 4 5
9 -4 5 0 12 6 14 8 3 6 6 -4 6 -20 1 -24 16 -7 26 5 4 18 -2 28 -14 13 -15 21
-17 29 -9 9 9 12 9 12 -1 0 -11 5 -10 22 1 20 13 24 13 38 -2 13 -15 28 -17
111 -11 74 5 99 3 109 -7 7 -8 22 -11 36 -8 31 8 41 -15 50 -119 4 -49 10 -73
17 -66 14 14 12 126 -3 162 -10 23 -10 33 -1 42 8 8 11 8 11 -2 0 -7 6 -11 14
-8 7 3 18 1 23 -4 6 -6 19 -2 35 10 14 11 28 17 32 13 4 -3 11 0 16 8 7 11 10
11 10 2 0 -10 4 -10 23 0 12 7 28 11 35 10 6 -2 12 2 12 9 0 9 3 9 14 0 11 -9
16 -9 21 0 6 8 10 7 16 -2 7 -11 9 -11 9 3 0 12 8 15 31 14 25 -2 33 3 47 28
15 31 16 31 21 8 l6 -24 19 21 c11 12 24 21 30 21 6 0 24 7 40 15 16 9 40 16
53 17 12 1 23 5 23 9 0 4 6 6 13 5 6 0 13 4 15 9 1 6 -7 11 -18 11 -11 1 -26
7 -35 14 -12 10 -15 10 -15 0 0 -7 -7 -10 -16 -6 -8 3 -12 2 -9 -4 8 -13 4
-13 -38 5 -45 19 -48 19 -40 -1 5 -13 3 -15 -13 -6 -21 11 -86 10 -119 -3 -38
-14 -46 -15 -40 -5 3 6 -3 10 -14 10 -31 0 -114 30 -133 49 -9 9 -25 23 -34
30 -14 12 -15 16 -3 20 17 5 43 31 32 31 -5 0 -10 14 -11 32 -2 18 -8 36 -15
40 -9 6 -9 10 1 20 6 6 12 17 12 23 0 5 -5 3 -10 -5 -8 -13 -10 -13 -10 2 0
10 15 24 34 33 19 9 42 25 52 36 9 10 23 19 31 19 8 0 11 5 8 10 -3 6 -1 10 5
10 6 0 9 4 6 9 -3 5 1 14 9 21 9 7 23 29 32 49 9 20 19 41 22 46 7 14 -23 -10
-98 -78 -69 -61 -102 -77 -126 -57 -10 9 -15 9 -15 1 0 -6 -4 -11 -10 -11 -8
0 -67 36 -95 58 -39 30 -133 99 -145 107 -8 5 -2 -8 13 -28 15 -20 23 -37 18
-37 -19 0 -11 -24 17 -57 27 -32 147 -99 168 -95 22 4 31 -24 37 -115 l7 -91
-54 -36 c-30 -20 -59 -36 -65 -36 -6 0 -15 -9 -21 -20 -7 -14 -7 -20 0 -20 5
0 10 4 10 9 0 5 16 5 38 -1 47 -12 202 -16 202 -4 0 4 7 6 15 2 10 -3 15 1 15
12 1 16 1 16 11 -1 5 -9 21 -17 34 -17 13 0 27 -4 30 -10 9 -15 -56 -50 -96
-50 -19 0 -40 -5 -46 -11 -8 -8 -17 -8 -31 0 -15 8 -22 8 -26 -2 -5 -9 -7 -9
-12 1 -3 6 -13 12 -22 12 -9 0 -39 12 -67 25 -46 22 -51 23 -67 8 -17 -15 -18
-14 -19 8 -1 17 -3 19 -6 6 -2 -9 -8 -17 -11 -18 -38 -4 -64 -3 -68 3 -3 4
-16 3 -29 -2 -20 -7 -25 -6 -25 5 0 8 -9 16 -20 16 -11 1 -26 2 -32 3 -7 1
-19 -3 -27 -8 -12 -9 -13 -7 -8 7 8 21 -1 22 -24 1 -16 -15 -17 -13 -13 27 4
40 3 41 -14 26 -10 -10 -23 -17 -28 -17 -5 0 2 9 15 19 14 10 30 17 37 14 7
-2 18 5 24 16 8 16 8 22 -2 25 -7 2 -21 7 -31 10 -12 4 -16 2 -11 -5 4 -7 1
-10 -7 -7 -8 3 -13 15 -11 26 2 15 -2 22 -12 22 -19 0 -19 1 -6 34 6 17 6 26
-1 26 -6 0 -6 8 1 21 15 28 12 29 -32 14 -21 -7 -38 -9 -38 -4 0 5 11 11 25
15 14 4 24 9 21 12 -6 5 33 37 46 37 3 0 10 3 14 7 12 12 -15 9 -39 -4 -12 -6
-40 -13 -62 -14 l-39 -2 23 19 c13 11 28 19 35 19 6 0 4 -5 -4 -10 -8 -5 -10
-10 -5 -10 6 0 17 5 25 10 12 8 12 10 1 10 -8 0 -11 7 -8 20 4 15 0 20 -13 20
-11 0 -22 4 -25 10 -3 5 1 10 9 10 8 0 19 6 23 13 4 8 17 17 28 21 13 5 15 10
8 13 -22 8 12 33 44 33 l28 -1 -30 -13 -30 -13 27 -5 c19 -3 33 1 44 13 10 11
24 19 33 20 10 0 12 2 3 6 -6 2 -10 9 -6 14 3 5 0 9 -6 9 -7 0 -10 6 -7 14 3
8 3 17 -1 19 -4 2 -1 2 7 0 18 -4 43 16 35 29 -4 6 4 4 17 -2 19 -11 24 -10
35 5 8 10 11 21 9 26 -3 4 4 5 15 2 11 -3 20 -9 20 -13 0 -10 49 0 56 11 11
19 20 8 16 -21 -3 -24 0 -31 19 -39 13 -5 27 -7 32 -4 4 2 7 -1 7 -7 0 -7 8
-9 20 -5 15 5 20 2 20 -10 0 -11 5 -15 14 -12 7 3 24 -2 36 -10 18 -12 27 -14
41 -5 13 8 19 8 22 -1 4 -9 6 -9 6 1 1 6 6 12 12 12 20 0 38 27 33 51 -4 22
-3 22 5 4 9 -19 10 -19 10 3 1 16 6 22 17 20 10 -2 19 4 21 12 4 13 3 13 -7 0
-9 -12 -11 -9 -8 17 3 18 1 30 -4 27 -5 -3 -6 7 -3 23 5 23 4 25 -5 11 -18
-30 -33 -21 -26 15 5 28 4 30 -7 12 -14 -24 -47 -29 -47 -8 0 8 -7 22 -16 31
-15 15 -16 14 -10 -6 5 -13 3 -22 -3 -22 -19 0 -11 43 24 130 40 100 51 95 19
-7 -18 -58 -2 -55 24 4 12 27 21 40 22 31 0 -14 5 -16 22 -9 16 6 26 25 40 77
11 38 24 71 29 75 6 3 11 16 12 27 1 12 5 22 9 22 5 0 15 18 24 40 9 22 23 40
31 40 8 0 12 4 9 9 -3 4 3 19 14 31 16 18 17 25 8 31 -8 5 -15 1 -20 -11 -10
-28 -18 -25 -12 4 5 30 34 86 34 67 0 -20 7 -11 25 35 l16 39 -22 -27 c-23
-31 -45 -38 -30 -10 18 32 59 152 51 147 -8 -5 -52 -91 -56 -110 -1 -5 -14
-45 -28 -87 -14 -42 -26 -85 -26 -95 0 -11 -4 -23 -9 -28 -5 -6 -14 -28 -21
-50 -7 -22 -17 -46 -23 -53 -6 -8 -21 -43 -34 -80 -13 -36 -26 -68 -29 -71
-18 -16 9 79 41 147 39 81 40 86 55 168 8 49 53 167 71 190 5 6 15 29 23 52
13 37 13 42 0 42 -8 0 -12 -4 -9 -10 3 -5 1 -10 -5 -10 -6 0 -9 -4 -6 -8 2 -4
1 -14 -5 -22 -7 -12 -9 -9 -9 9 0 34 -8 22 -14 -19 -6 -47 -23 -110 -30 -117
-18 -18 -17 14 1 57 17 40 18 50 7 50 -8 0 -14 -6 -14 -12 0 -7 -8 -22 -17
-33 -17 -22 -17 -30 2 80 5 28 5 29 -6 8 -7 -13 -15 -23 -19 -23 -4 0 -5 -11
-2 -25 3 -16 0 -25 -8 -25 -8 0 -10 -9 -6 -25 6 -24 6 -25 -14 -8 -11 10 -20
29 -20 43 0 20 2 22 11 10 8 -12 9 -10 4 7 -8 28 4 75 18 66 5 -3 7 -1 3 5 -3
6 3 29 15 51 30 58 41 111 23 111 -8 0 -14 -10 -14 -23 0 -13 -7 -32 -16 -43
-14 -17 -15 -18 -10 -1 3 10 9 36 12 58 4 22 11 42 15 45 15 9 10 22 -8 20
-22 -1 -33 -24 -26 -54 3 -13 -3 -34 -13 -50 -10 -15 -17 -33 -16 -41 2 -7 -1
-10 -8 -6 -7 4 -10 -3 -7 -22 3 -17 -3 -39 -16 -56 -16 -24 -18 -35 -10 -62 6
-19 7 -39 2 -46 -6 -10 -9 -3 -9 19 0 32 -13 42 -26 20 -4 -6 -2 -14 4 -16 7
-2 12 -8 12 -13 0 -6 -4 -8 -9 -5 -11 7 -38 -32 -44 -65 -3 -19 -5 -16 -6 11
-2 19 -5 29 -8 23 -2 -7 -9 -13 -14 -13 -6 0 -7 5 -4 11 4 5 1 23 -5 40 -10
23 -10 39 0 74 7 25 15 45 19 45 10 0 44 90 37 98 -4 3 -9 -4 -13 -16 -3 -12
-9 -22 -13 -22 -5 0 -14 -15 -20 -34 -6 -19 -18 -37 -26 -40 -8 -3 -12 -11 -9
-16 4 -6 0 -25 -8 -43 -8 -18 -17 -39 -20 -47 -12 -35 -6 21 9 80 8 34 14 64
11 66 -3 4 -23 -61 -54 -180 -3 -10 -9 -14 -14 -9 -5 5 -2 36 7 72 8 36 13 69
11 74 -2 6 -9 -15 -16 -46 -15 -68 -28 -74 -28 -12 0 28 4 42 10 38 6 -4 8 0
4 10 -6 15 47 107 62 107 9 0 43 71 37 77 -2 3 -14 -12 -25 -34 l-20 -38 -2
30 c-1 20 -3 24 -6 10 -8 -39 -36 -94 -49 -99 -11 -4 -10 0 2 19 9 13 14 30
11 37 -2 7 -8 1 -12 -14 -11 -42 -25 -34 -25 15 -1 23 -7 53 -15 67 -17 29
-19 54 -5 45 6 -3 10 1 10 9 0 9 7 16 15 16 8 0 15 5 15 10 0 6 -7 13 -15 16
-8 4 -15 13 -15 21 0 8 -4 12 -9 8 -5 -3 -16 4 -24 16 -11 15 -16 17 -20 7 -4
-10 -8 -10 -16 2 -8 12 -11 12 -11 1 0 -7 -6 -11 -15 -7 -20 7 -19 -16 0 -54
l15 -30 -25 10 c-24 9 -25 8 -14 -12 10 -19 9 -20 -10 -15 -11 3 -21 1 -21 -5
0 -5 -5 -6 -10 -3 -6 4 -8 11 -5 16 7 11 -4 53 -12 45 -4 -3 -12 2 -19 12 -13
16 -13 16 -14 -1 0 -9 6 -26 13 -37 10 -17 9 -22 -3 -30 -15 -9 -13 -11 13
-14 6 -1 11 -9 9 -18 -1 -9 2 -19 8 -23 5 -3 10 -13 10 -21 0 -8 -4 -13 -9
-10 -5 4 -7 -3 -4 -15 4 -16 8 -18 14 -7 7 11 11 10 19 -2 5 -8 10 -25 10 -37
0 -13 4 -23 9 -23 5 0 11 -6 14 -12 2 -7 2 1 -1 17 -2 17 -8 35 -13 41 -8 10
-21 114 -14 114 2 0 11 -15 19 -32 21 -47 31 -145 16 -163 -7 -8 -9 -27 -6
-47 l7 -33 -15 25 c-9 14 -15 33 -16 43 0 9 -4 17 -10 17 -16 0 3 -77 32 -128
10 -18 18 -38 18 -45 -1 -19 -30 23 -62 91 -16 34 -34 62 -39 62 -5 0 -9 7 -9
15 0 29 -15 15 -16 -15 -1 -17 3 -30 8 -30 5 0 6 5 3 10 -3 6 1 10 9 10 19 0
20 -9 2 -32 -12 -16 -14 -16 -26 7 -7 13 -19 26 -27 29 -11 4 -10 0 2 -24 17
-32 20 -64 6 -56 -5 3 -8 -8 -7 -25 1 -16 -1 -32 -6 -35 -4 -3 -8 3 -9 13 0
16 -1 16 -9 -2 -8 -19 -9 -18 -9 4 -1 13 -4 22 -7 19 -3 -3 -1 -29 4 -57 5
-28 6 -54 2 -56 -10 -6 -19 -55 -11 -55 3 0 5 -19 4 -42 -1 -24 2 -55 8 -69
10 -26 13 -55 10 -116 -1 -22 -6 -33 -16 -33 -8 0 -15 -5 -15 -12 0 -9 -3 -9
-11 -1 -6 6 -13 60 -15 125 -3 62 -6 121 -8 131 -2 9 0 17 5 17 5 0 9 5 9 11
0 5 -4 8 -9 5 -11 -7 -21 86 -10 98 8 9 -9 68 -24 77 -5 4 -7 17 -5 30 5 25 5
25 24 -28 6 -15 8 -14 14 7 5 14 8 19 9 13 1 -7 8 -13 17 -13 14 0 14 2 0 22
-25 35 -21 55 6 32 17 -14 20 -15 9 -2 -7 9 -10 22 -6 28 4 6 0 22 -9 35 -21
32 -20 38 3 26 16 -9 18 -8 14 9 -3 11 -8 20 -12 20 -11 0 -41 68 -41 92 0 43
26 -2 29 -49 1 -7 7 -13 15 -13 8 0 13 -6 12 -12 0 -7 3 -14 8 -15 5 -1 13 -7
17 -15 7 -10 9 -10 9 0 0 7 5 10 10 7 6 -3 10 3 10 15 0 12 -4 19 -9 16 -5 -4
-7 3 -4 14 3 11 9 23 14 26 15 9 10 41 -10 78 -21 36 -18 81 4 72 8 -3 16 2
19 11 4 9 14 13 26 10 14 -3 20 0 20 10 0 13 3 13 15 3 13 -10 15 -9 15 9 0
13 -4 19 -10 16 -6 -4 -17 -1 -25 5 -8 7 -15 8 -15 3 0 -13 -33 -12 -42 1 -5
8 -8 7 -8 -1 0 -7 -7 -13 -15 -13 -8 0 -15 -5 -15 -11 0 -6 -7 -8 -16 -5 -8 3
-13 2 -10 -3 3 -5 0 -13 -7 -18 -21 -17 -46 -23 -52 -12 -4 5 -1 8 6 7 8 -2
15 12 19 38 6 42 45 102 67 103 6 1 15 10 18 21 3 11 11 20 16 20 5 0 9 9 9
20 0 11 -7 20 -15 20 -8 0 -15 -8 -15 -17 0 -15 -2 -14 -15 3 -11 14 -14 15
-15 4 0 -13 -1 -13 -10 0 -5 8 -10 10 -10 4 0 -23 -31 -24 -41 -1 -8 18 -9 16
-4 -12 l5 -34 -20 23 c-11 13 -23 20 -27 17 -10 -11 -45 93 -53 158 -6 57 -11
74 -30 120 -14 33 -48 163 -44 168 2 2 -2 4 -10 4 -11 0 -10 -11 5 -55 21 -62
17 -84 -5 -30 -22 53 -45 158 -34 158 6 0 12 -9 15 -19 4 -16 8 -17 18 -8 10
10 9 14 -6 25 -21 14 -27 38 -6 26 6 -4 -10 16 -38 45 -27 29 -49 59 -49 67 1
7 -2 12 -6 9 -10 -6 -50 47 -50 65 0 7 -11 21 -25 32 -14 11 -25 26 -25 34 0
8 -12 19 -26 24 -15 6 -22 14 -18 22 4 6 3 8 -4 5 -15 -10 -9 -33 15 -59 22
-25 39 -63 23 -53 -6 3 -10 13 -10 20 0 8 -8 19 -19 24 -10 6 -24 24 -31 41
-7 16 -17 30 -23 30 -7 0 -7 -4 1 -12 17 -17 15 -31 -4 -24 -14 5 51 -83 81
-109 6 -5 14 -18 18 -27 7 -19 47 -44 47 -29 0 6 -6 14 -14 18 -7 4 -19 19
-25 33 -11 22 -9 21 16 -6 15 -17 43 -41 61 -53 17 -12 32 -27 32 -34 0 -6 12
-23 27 -39 14 -15 24 -31 20 -34 -7 -7 -76 65 -77 79 0 5 -7 15 -15 23 -21 21
-19 1 4 -47 12 -25 15 -39 8 -36 -7 2 -17 15 -24 28 -7 14 -35 45 -62 69 -27
24 -47 48 -45 54 5 12 -66 96 -81 96 -4 0 -1 -8 7 -17 9 -10 23 -34 31 -53 8
-19 26 -46 40 -60 80 -78 96 -95 92 -99 -3 -2 1 -11 7 -19 10 -12 9 -14 -7
-10 -13 2 -20 11 -20 25 0 14 -17 34 -47 57 -26 20 -51 37 -55 38 -14 1 -56
38 -51 43 3 3 17 -4 32 -16 38 -30 42 -18 6 16 -17 16 -30 35 -30 42 0 7 -4
13 -8 13 -4 0 -16 14 -25 30 -10 17 -25 30 -33 30 -16 0 -19 16 -4 25 6 4 8
11 4 16 -3 5 -9 7 -14 4 -4 -3 -13 2 -19 9 -10 12 -8 14 11 10 13 -2 17 -2 10
2 -7 3 -17 15 -23 26 -10 18 -9 18 10 8 36 -19 24 6 -30 66 -51 56 -61 88 -14
44 34 -32 32 -20 -2 16 -16 16 -41 47 -58 68 -16 22 -45 57 -64 80 -18 23 -38
51 -44 64 -6 12 -14 22 -19 22 -5 0 0 -15 11 -34 12 -18 21 -40 21 -48 0 -8 9
-23 20 -33 10 -9 19 -20 18 -24 -3 -15 18 -71 49 -132 19 -37 36 -75 38 -85
17 -74 25 -97 39 -119 9 -13 16 -31 16 -38 0 -8 9 -26 20 -40 11 -14 20 -31
20 -39 0 -26 60 -86 104 -104 25 -10 47 -26 49 -35 4 -13 -6 -10 -42 12 -45
29 -72 23 -35 -7 11 -9 13 -13 7 -9 -28 14 0 -22 30 -40 l32 -18 -25 28 -25
28 28 -18 c15 -10 26 -23 24 -29 -2 -6 11 -21 29 -33 l34 -22 -15 29 c-8 15
-20 30 -27 32 -10 4 -10 8 -1 20 10 11 10 17 1 26 -9 9 -9 12 0 12 7 0 5 7 -5
19 -10 10 -20 18 -23 18 -10 -1 -70 38 -70 45 0 9 26 0 61 -21 28 -18 89 -84
89 -97 0 -5 -10 2 -21 16 -20 24 -20 24 -14 3 4 -16 2 -23 -7 -23 -9 0 -9 -3
-2 -8 17 -11 114 -135 114 -146 0 -5 -16 7 -35 27 -20 21 -42 37 -50 37 -8 0
-15 5 -15 10 0 6 -6 10 -14 10 -7 0 -19 7 -26 15 -8 9 -21 13 -34 10 -17 -5
-18 -4 -6 4 12 9 11 11 -9 11 -20 0 -22 -2 -10 -16 7 -9 22 -20 34 -25 45 -20
116 -75 148 -116 18 -22 18 -23 0 -16 -10 3 -24 10 -30 16 -22 17 -14 -4 10
-24 l22 -20 -32 16 c-46 22 -56 19 -36 -12 19 -29 8 -27 -29 5 -11 9 -18 11
-18 4 0 -6 12 -19 26 -29 14 -10 35 -27 48 -38 12 -11 14 -14 5 -7 -12 9 -19
10 -24 3 -3 -6 -1 -11 4 -11 6 0 11 -6 11 -14 0 -7 12 -35 26 -62 20 -38 22
-45 8 -33 -11 9 -30 20 -44 23 -23 7 -21 4 12 -28 23 -22 32 -36 23 -36 -8 0
-23 9 -32 19 -9 11 -20 18 -24 16 -6 -4 -39 70 -39 87 0 4 -27 62 -59 130
-141 295 -281 653 -266 678 3 5 1 12 -5 15 -15 9 -74 128 -72 142 2 7 -4 26
-13 43 -8 16 -15 32 -14 35 4 19 -60 120 -90 142 -20 15 -54 46 -76 69 -22 23
-71 59 -108 78 -78 42 -125 68 -185 104 -36 21 -45 23 -53 11 -7 -11 -12 -12
-29 -1 -27 16 -39 15 -48 -5z m38 -3 c0 -5 -2 -10 -4 -10 -3 0 -8 5 -11 10 -3
6 -1 10 4 10 6 0 11 -4 11 -10z m715 -568 c-3 -3 -11 0 -18 7 -9 10 -8 11 6 5
10 -3 15 -9 12 -12z m453 -617 c0 -24 3 -48 6 -53 3 -5 -1 -9 -9 -9 -11 0 -15
13 -15 49 0 36 -3 47 -12 42 -10 -5 -10 -4 -1 6 6 7 9 20 6 29 -4 13 -2 13 10
-2 9 -10 15 -38 15 -62z m80 -173 c2 -7 -2 -10 -12 -6 -9 3 -16 11 -16 16 0
13 23 5 28 -10z m-88 -17 c7 -8 8 -15 2 -15 -5 0 -15 7 -22 15 -7 8 -8 15 -2
15 5 0 15 -7 22 -15z m40 -5 c0 -5 -2 -10 -4 -10 -3 0 -8 5 -11 10 -3 6 -1 10
4 10 6 0 11 -4 11 -10z m63 -14 c6 -16 -2 -28 -14 -20 -12 7 -11 34 0 34 5 0
11 -6 14 -14z m-78 -26 c4 -11 17 -32 31 -47 13 -14 21 -29 19 -34 -3 -4 -1
-10 5 -14 16 -10 12 -25 -5 -19 -8 3 -17 16 -21 27 -4 12 -17 38 -30 57 -26
37 -29 50 -15 50 5 0 13 -9 16 -20z m6 -77 c13 -25 28 -47 34 -47 12 -1 65
-101 65 -123 0 -15 -4 -13 -20 7 -11 14 -28 44 -39 66 -11 23 -26 44 -34 47
-16 6 -51 97 -38 97 4 0 19 -21 32 -47z m85 25 c-3 -21 4 -53 22 -98 3 -8 6
-17 7 -20 10 -32 31 -60 42 -56 7 3 13 -1 13 -9 0 -23 -18 -27 -35 -7 -24 27
-78 125 -66 118 15 -9 14 -2 -3 39 -13 31 -13 35 0 35 7 0 14 5 14 10 0 6 2
10 5 10 3 0 3 -10 1 -22z m-242 -84 c8 -21 8 -24 -3 -24 -5 0 -11 9 -14 20 -6
24 8 27 17 4z m161 -15 c14 -18 24 -38 21 -46 -3 -8 -1 -11 4 -8 6 3 10 -4 10
-17 l0 -22 -21 20 c-11 12 -22 33 -23 48 -2 15 -12 33 -22 41 -11 8 -14 15 -7
15 6 0 23 -14 38 -31z m15 -127 c0 -13 -3 -12 -15 4 -19 25 -19 40 0 24 8 -7
15 -20 15 -28z m467 -184 c-3 -8 -6 -5 -6 6 -1 11 2 17 5 13 3 -3 4 -12 1 -19z
m-209 -13 c-1 -14 -6 -25 -10 -25 -10 0 -10 13 -2 34 9 23 14 19 12 -9z m-23
-43 c6 -16 -26 0 -44 22 -11 13 -9 13 13 3 14 -7 28 -18 31 -25z m265 -147 l8
-30 1 31 c1 17 -6 51 -14 74 -17 50 -19 70 -5 70 6 0 10 -16 10 -35 0 -19 5
-35 10 -35 6 0 10 -25 10 -55 0 -30 -4 -55 -10 -55 -5 0 -10 -13 -10 -30 0
-16 -4 -30 -9 -30 -9 0 -20 52 -22 105 l-2 30 -7 -30 c-7 -26 -7 -24 -4 11 4
47 -5 86 -17 78 -13 -7 -11 3 4 27 11 18 14 15 31 -38 10 -32 22 -71 26 -88z
m-378 10 c23 -29 40 -33 32 -7 -5 16 -5 16 9 -1 15 -18 12 -57 -3 -57 -5 0 -6
-8 -3 -19 3 -10 0 -22 -6 -25 -7 -5 -11 5 -11 28 0 25 -9 45 -31 71 -17 19
-26 35 -19 35 7 0 21 -11 32 -25z m725 -17 c-3 -7 -5 -2 -5 12 0 14 2 19 5 13
2 -7 2 -19 0 -25z m-730 -60 c-3 -8 -6 -5 -6 6 -1 11 2 17 5 13 3 -3 4 -12 1
-19z m353 -38 c0 -13 -1 -13 -10 0 -5 8 -10 22 -10 30 0 13 1 13 10 0 5 -8 10
-22 10 -30z m28 -80 l0 -25 -8 25 c-4 14 -8 34 -8 45 l-1 20 9 -20 c5 -11 8
-31 8 -45z m-128 19 c0 -6 -4 -7 -10 -4 -5 3 -10 11 -10 16 0 6 5 7 10 4 6 -3
10 -11 10 -16z m98 -39 c-2 -7 -10 1 -17 16 -12 27 -11 28 4 12 10 -9 16 -21
13 -28z m161 -22 c-1 -24 -3 -35 -6 -25 -2 9 -8 17 -12 17 -5 0 -6 11 -3 25 7
41 22 29 21 -17z m141 18 c0 -8 -7 -19 -15 -26 -12 -10 -15 -10 -15 3 0 25 11
47 21 41 5 -3 9 -11 9 -18z m-230 -18 c0 -5 -4 -8 -10 -8 -5 0 -10 10 -10 23
0 18 2 19 10 7 5 -8 10 -18 10 -22z m20 -9 c0 -16 -4 -28 -9 -25 -8 5 -3 56 5
56 2 0 4 -14 4 -31z m17 -54 c-6 -25 -12 -43 -14 -41 -8 7 9 96 17 91 4 -2 3
-25 -3 -50z m120 8 c-3 -10 -5 -2 -5 17 0 19 2 27 5 18 2 -10 2 -26 0 -35z
m-267 5 c6 -18 16 -41 22 -51 8 -17 4 -36 -6 -26 -11 11 -45 109 -37 109 5 0
14 -15 21 -32z m483 15 c-7 -3 -13 -16 -13 -29 0 -28 -16 -64 -29 -64 -13 0
14 91 29 100 8 5 17 6 20 3 3 -3 -1 -8 -7 -10z m-393 -31 c0 -7 -4 -10 -10 -7
-5 3 -10 16 -10 28 0 18 2 19 10 7 5 -8 10 -21 10 -28z m314 -13 c-24 -27 -27
-18 -7 22 14 26 18 30 21 16 2 -10 -4 -27 -14 -38z m-101 27 c6 -15 -1 -26
-15 -26 -4 0 -8 9 -8 20 0 23 15 27 23 6z m-112 -37 l-9 -34 -1 31 c-1 17 2
34 6 37 12 13 14 -1 4 -34z m59 31 c0 -5 -5 -10 -11 -10 -5 0 -7 5 -4 10 3 6
8 10 11 10 2 0 4 -4 4 -10z m117 -32 c-3 -7 -5 -2 -5 12 0 14 2 19 5 13 2 -7
2 -19 0 -25z m-23 -77 c-4 -9 -6 -19 -6 -23 1 -5 -2 -8 -8 -8 -5 0 -10 11 -10
25 0 14 5 25 10 25 6 0 10 5 10 11 0 5 -5 7 -12 3 -8 -5 -9 -2 -4 12 5 10 11
28 15 39 4 14 7 6 9 -24 2 -24 0 -51 -4 -60z m-722 57 c-7 -7 -12 -8 -12 -2 0
6 3 14 7 17 3 4 9 5 12 2 2 -3 -1 -11 -7 -17z m674 6 c-9 -8 -16 -26 -16 -38
0 -39 -12 -86 -21 -81 -19 12 19 135 42 135 6 0 3 -7 -5 -16z m92 -34 c-8 -25
-28 -51 -28 -37 0 15 24 67 30 67 5 0 4 -14 -2 -30z m-401 -2 c-3 -8 -6 -5 -6
6 -1 11 2 17 5 13 3 -3 4 -12 1 -19z m203 -45 c0 -7 -4 -13 -10 -13 -5 0 -10
12 -10 28 0 21 2 24 10 12 5 -8 10 -21 10 -27z m256 1 c-20 -40 -46 -99 -73
-164 -19 -45 -22 -48 -17 -20 3 19 15 55 25 79 10 24 19 50 19 59 0 17 49 86
56 79 3 -2 -2 -17 -10 -33z m-299 -6 c-3 -7 -5 -2 -5 12 0 14 2 19 5 13 2 -7
2 -19 0 -25z m160 -40 c-3 -8 -6 -5 -6 6 -1 11 2 17 5 13 3 -3 4 -12 1 -19z
m73 13 c0 -6 -5 -13 -10 -16 -6 -4 -7 -12 -4 -18 5 -9 4 -9 -6 0 -7 6 -10 19
-7 27 7 17 27 22 27 7z m-173 -48 c-3 -10 -5 -2 -5 17 0 19 2 27 5 18 2 -10 2
-26 0 -35z m-242 27 c3 -5 1 -10 -4 -10 -6 0 -11 5 -11 10 0 6 2 10 4 10 3 0
8 -4 11 -10z m205 -35 c0 -8 -4 -15 -10 -15 -5 0 -10 7 -10 15 0 8 5 15 10 15
6 0 10 -7 10 -15z m95 5 c3 -5 1 -10 -4 -10 -6 0 -11 5 -11 10 0 6 2 10 4 10
3 0 8 -4 11 -10z m-168 -22 c-3 -8 -6 -5 -6 6 -1 11 2 17 5 13 3 -3 4 -12 1
-19z m209 -15 c-11 -11 -19 6 -11 24 8 17 8 17 12 0 3 -10 2 -21 -1 -24z m41
-15 c-3 -7 -5 -2 -5 12 0 14 2 19 5 13 2 -7 2 -19 0 -25z m-34 -46 c-6 -42
-23 -59 -23 -23 0 23 19 76 25 70 2 -3 1 -23 -2 -47z m-142 6 c-3 -21 -6 -26
-9 -15 -3 17 3 47 11 47 2 0 1 -15 -2 -32z m79 -20 c0 -18 -2 -20 -9 -8 -6 8
-7 18 -5 22 9 14 14 9 14 -14z m-1 -131 c2 23 36 93 44 93 10 0 9 -2 -24 -77
-22 -52 -39 -68 -39 -38 0 8 -5 15 -11 15 -5 0 -8 -4 -5 -9 4 -5 3 -17 -1 -27
-6 -16 -7 -16 -14 2 -7 17 -8 17 -8 2 -1 -30 -21 -20 -21 10 0 15 -3 45 -6 67
-4 30 -3 36 5 25 10 -13 12 -13 21 0 7 11 10 5 10 -23 0 -24 4 -36 10 -32 6 4
10 14 9 23 -1 10 0 31 1 47 2 23 6 16 15 -30 7 -33 13 -54 14 -48z m-109 61
c0 -19 -2 -20 -10 -8 -13 19 -13 30 0 30 6 0 10 -10 10 -22z m-119 -20 c1 -7
1 -20 0 -28 -2 -12 0 -12 7 -1 8 11 11 11 18 0 6 -10 10 -7 15 11 l6 25 13
-30 13 -30 7 30 c6 25 8 27 15 12 6 -14 10 -16 16 -6 11 19 19 7 25 -37 4 -35
3 -36 -7 -16 -19 35 -27 26 -23 -25 l4 -48 -13 37 c-17 51 -27 57 -27 17 0
-26 -3 -30 -10 -19 -5 8 -10 26 -11 40 l-2 25 -4 -24 -5 -25 -18 25 -19 24 9
-40 c12 -52 6 -55 -19 -8 -11 21 -21 31 -21 23 -1 -10 -4 -9 -10 5 -13 31 -12
39 5 25 13 -11 15 -8 15 19 0 29 19 46 21 19z m-54 -89 c-1 -18 -17 -28 -17
-11 0 4 -3 18 -7 32 -6 22 -5 23 10 12 8 -7 15 -22 14 -33z m-37 2 c0 -4 11
-20 26 -36 14 -15 22 -30 19 -34 -7 -6 -65 57 -65 71 0 4 5 8 10 8 6 0 10 -4
10 -9z m73 -28 c5 -26 2 -42 -7 -32 -9 11 -15 59 -7 59 5 0 11 -12 14 -27z
m224 -15 c-3 -7 -5 -2 -5 12 0 14 2 19 5 13 2 -7 2 -19 0 -25z m-324 -19 c-16
-16 -32 -3 -26 22 5 19 7 19 21 5 12 -12 13 -19 5 -27z m32 -9 c3 -5 0 -10 -7
-11 -7 0 -4 -4 7 -9 13 -6 15 -9 5 -9 -23 -1 -43 15 -36 28 9 14 23 14 31 1z
m-41 -36 c20 -8 11 -24 -12 -23 -12 0 -13 2 -3 6 11 5 11 7 0 14 -16 10 -8 12
15 3z m493 -19 c0 -8 -4 -12 -9 -9 -4 3 -8 9 -8 15 0 5 4 9 8 9 5 0 9 -7 9
-15z m-547 -20 c7 -8 8 -15 2 -15 -5 0 -15 7 -22 15 -7 8 -8 15 -2 15 5 0 15
-7 22 -15z m526 3 c4 -6 3 -8 -4 -4 -5 3 -12 1 -14 -6 -3 -8 -9 -8 -24 1 -15
10 -15 11 -1 7 9 -3 17 -1 17 4 0 14 17 12 26 -2z m-56 -28 c0 -5 -5 -10 -11
-10 -5 0 -7 5 -4 10 3 6 8 10 11 10 2 0 4 -4 4 -10z m-453 -6 c-3 -3 -12 -4
-19 -1 -8 3 -5 6 6 6 11 1 17 -2 13 -5z m419 -35 c3 -6 2 -15 -4 -21 -6 -6
-11 -2 -15 11 -5 22 7 29 19 10z m-433 -16 c-7 -2 -19 -2 -25 0 -7 3 -2 5 12
5 14 0 19 -2 13 -5z m-250 -240 c-7 -2 -19 -2 -25 0 -7 3 -2 5 12 5 14 0 19
-2 13 -5z m177 -28 c-7 -8 -17 -15 -23 -15 -6 0 -2 7 9 15 25 19 30 19 14 0z
m-105 -99 c-22 -19 -42 -32 -45 -29 -6 6 61 62 75 63 6 0 -8 -16 -30 -34z
m-225 -1 c-7 -9 -27 -25 -44 -36 -25 -17 -24 -14 8 15 41 38 58 47 36 21z
m161 -22 c-31 -44 -92 -106 -97 -101 -4 5 106 127 114 128 2 0 -6 -12 -17 -27z
m-131 13 c0 -2 -8 -10 -17 -17 -16 -13 -17 -12 -4 4 13 16 21 21 21 13z m317
-30 c-3 -8 -1 -16 6 -19 6 -2 5 -6 -5 -9 -11 -5 -15 -2 -13 10 2 9 4 20 4 25
1 4 4 7 7 7 3 0 4 -6 1 -14z m-427 -40 c0 -2 -8 -10 -17 -17 -16 -13 -17 -12
-4 4 13 16 21 21 21 13z m115 -26 c-16 -16 -34 -30 -39 -30 -10 1 53 59 63 60
3 0 -8 -13 -24 -30z m156 -38 c-34 -38 -61 -74 -61 -81 0 -7 -8 -25 -18 -39
-11 -15 -34 -55 -52 -89 -18 -34 -41 -70 -53 -80 -20 -18 -20 -18 -8 5 7 12 9
27 6 32 -4 6 -1 9 6 8 7 -2 35 40 63 94 45 86 146 215 169 217 5 1 -19 -30
-52 -67z m-75 -29 c-8 -16 -24 -39 -36 -53 -12 -14 -40 -51 -61 -82 -22 -32
-42 -58 -44 -58 -7 0 54 101 85 140 15 19 32 45 39 58 6 12 16 22 22 22 5 0 3
-12 -5 -27z m274 -3 c-6 -11 -13 -20 -16 -20 -2 0 0 9 6 20 6 11 13 20 16 20
2 0 0 -9 -6 -20z m-237 -85 c-3 -9 -8 -14 -10 -11 -3 3 -2 9 2 15 9 16 15 13
8 -4z m0 -55 c-5 -19 -23 -29 -23 -12 0 7 20 32 26 32 1 0 0 -9 -3 -20z m-193
-30 c-12 -16 -24 -30 -26 -30 -7 0 5 20 24 43 24 27 25 20 2 -13z m61 -13
c-10 -9 -11 -8 -5 6 3 10 9 15 12 12 3 -3 0 -11 -7 -18z m109 4 c0 -13 -39
-58 -40 -46 0 10 31 55 38 55 1 0 2 -4 2 -9z m-150 -120 c-5 -11 -15 -23 -21
-27 -6 -3 -3 5 6 20 20 30 30 35 15 7z m983 -46 c-3 -9 -8 -14 -10 -11 -3 3
-2 9 2 15 9 16 15 13 8 -4z m-883 -188 c-21 -31 -21 -27 3 38 8 22 12 26 15
12 2 -10 -6 -32 -18 -50z m101 -10 c-5 -14 -15 -28 -22 -33 -7 -4 -10 -3 -8 2
3 5 11 21 19 36 16 34 24 30 11 -5z m-60 -10 c-10 -9 -11 -8 -5 6 3 10 9 15
12 12 3 -3 0 -11 -7 -18z m189 -57 c0 -16 -4 -30 -10 -30 -11 0 -14 43 -3 53
11 12 13 8 13 -23z m-149 -15 c5 4 5 -3 1 -15 -8 -21 -28 -29 -26 -10 5 50 6
55 11 37 2 -9 9 -15 14 -12z m184 -4 c3 -5 1 -12 -5 -16 -5 -3 -10 1 -10 9 0
18 6 21 15 7z m335 -25 c1 5 9 -7 18 -26 16 -31 16 -36 2 -48 -13 -11 -13 -11
1 -6 10 3 19 -1 23 -11 5 -13 0 -16 -21 -13 -18 2 -29 10 -31 22 -5 26 -29 49
-37 36 -3 -5 -3 -14 0 -20 3 -5 2 -10 -4 -10 -5 0 -13 5 -16 11 -12 18 -49 27
-74 17 -32 -12 -49 5 -27 27 9 9 21 13 27 9 6 -3 15 0 20 7 8 12 10 12 18 -1
5 -8 8 -17 6 -20 -2 -3 5 -6 16 -6 14 0 17 5 13 18 -3 10 -1 18 5 18 6 0 11
-4 11 -10 0 -5 5 -10 10 -10 6 0 10 7 10 16 0 14 3 14 15 4 8 -7 15 -9 15 -4z
m-200 -36 c0 -16 -4 -30 -9 -30 -14 0 -20 37 -8 49 16 16 17 14 17 -19z m740
25 c0 -10 -53 -56 -59 -50 -3 4 2 12 12 19 9 7 17 18 17 25 0 6 7 11 15 11 8
0 15 -2 15 -5z m-80 -15 c0 -5 -10 -15 -22 -21 -23 -12 -23 -12 -4 10 21 23
26 26 26 11z m-377 -25 c-6 -17 -33 -21 -33 -5 0 6 7 10 16 10 9 0 12 5 8 12
-4 7 -3 8 4 4 6 -4 9 -13 5 -21z m-363 -20 c-7 -8 -17 -15 -23 -15 -5 0 -2 9
8 20 21 23 35 19 15 -5z m837 10 c9 -24 -1 -27 -15 -5 -8 13 -8 20 -2 20 6 0
13 -7 17 -15z m-874 -14 c5 -21 -9 -41 -30 -41 -7 0 -13 5 -13 10 0 6 4 10 9
10 5 0 7 9 4 20 -4 13 0 20 10 20 8 0 17 -9 20 -19z m207 5 c0 -8 2 -21 5 -28
4 -9 -2 -14 -15 -15 -11 -1 -20 3 -20 8 0 6 5 7 10 4 6 -3 10 1 10 10 0 9 -4
13 -10 10 -5 -3 -10 1 -10 9 0 9 7 16 15 16 8 0 15 -6 15 -14z m560 4 c0 -5
-5 -10 -11 -10 -5 0 -7 5 -4 10 3 6 8 10 11 10 2 0 4 -4 4 -10z m-520 -10 c0
-5 -4 -10 -10 -10 -5 0 -10 5 -10 10 0 6 5 10 10 10 6 0 10 -4 10 -10z m164
-16 c4 -11 1 -14 -11 -12 -9 2 -18 9 -21 16 -6 18 25 15 32 -4z m386 6 c0 -5
-5 -10 -11 -10 -5 0 -7 5 -4 10 3 6 8 10 11 10 2 0 4 -4 4 -10z m25 -40 c-4
-6 -11 -8 -16 -4 -5 3 -16 0 -24 -6 -12 -10 -15 -10 -15 0 0 6 9 14 20 17 11
3 20 13 20 22 1 14 2 14 11 -2 5 -9 7 -22 4 -27z m-105 26 c0 -2 -7 -7 -16
-10 -8 -3 -12 -2 -9 4 6 10 25 14 25 6z m184 -26 c-6 -6 -10 -2 -11 12 -2 16
1 18 10 9 7 -7 8 -14 1 -21z m156 21 c0 -6 -4 -13 -10 -16 -5 -3 -10 1 -10 9
0 9 5 16 10 16 6 0 10 -4 10 -9z m-995 -11 c-3 -5 -11 -10 -16 -10 -6 0 -7 5
-4 10 3 6 11 10 16 10 6 0 7 -4 4 -10z m356 -47 c24 -32 47 -61 53 -65 8 -5 7
-8 0 -8 -13 0 -114 97 -114 109 0 8 11 21 16 21 2 0 22 -26 45 -57z m30 15
c11 -21 11 -22 -4 -9 -10 7 -17 17 -17 22 0 15 9 10 21 -13z m724 -27 c8 -16
20 -31 27 -34 7 -3 9 -6 3 -6 -13 -1 -25 8 -54 42 -20 22 -21 27 -8 27 9 0 23
-13 32 -29z m-1665 -6 c-7 -8 -21 -15 -31 -15 -11 0 -19 -5 -19 -12 0 -6 -2
-9 -5 -6 -12 12 9 37 33 41 15 2 29 5 31 6 2 0 -2 -6 -9 -14z m795 5 c3 -6 -4
-10 -17 -10 -18 0 -20 2 -8 10 19 12 18 12 25 0z m974 -87 c2 -2 -2 -3 -10 -3
-8 0 -20 10 -28 23 l-14 22 24 -20 c13 -11 26 -21 28 -22z m-839 7 c0 -5 -5
-10 -11 -10 -5 0 -7 5 -4 10 3 6 8 10 11 10 2 0 4 -4 4 -10z m865 -80 c-5 -17
-10 -19 -21 -9 -8 6 -14 17 -13 23 0 7 2 6 6 -2 7 -19 23 -4 16 16 -5 13 -3
14 7 6 7 -7 9 -21 5 -34z m-2167 5 c-3 -3 -9 2 -12 12 -6 14 -5 15 5 6 7 -7
10 -15 7 -18z"/>
<path d="M2451 2034 c0 -11 3 -14 6 -6 3 7 2 16 -1 19 -3 4 -6 -2 -5 -13z"/>
<path d="M3820 4819 c0 -5 5 -7 10 -4 6 3 10 8 10 11 0 2 -4 4 -10 4 -5 0 -10
-5 -10 -11z"/>
<path d="M3730 4730 c0 -5 7 -7 15 -4 8 4 15 8 15 10 0 2 -7 4 -15 4 -8 0 -15
-4 -15 -10z"/>
<path d="M1157 4530 c3 -11 9 -20 15 -20 5 0 4 9 -2 20 -6 11 -12 20 -14 20
-2 0 -2 -9 1 -20z"/>
<path d="M3830 4500 c0 -5 7 -10 16 -10 8 0 12 5 9 10 -3 6 -10 10 -16 10 -5
0 -9 -4 -9 -10z"/>
<path d="M3790 4488 c0 -4 7 -8 15 -8 8 0 15 4 15 8 0 5 -7 9 -15 9 -8 0 -15
-4 -15 -9z"/>
<path d="M1238 4469 c9 -11 26 -25 37 -31 13 -7 10 0 -10 20 -34 35 -54 43
-27 11z"/>
<path d="M3793 4420 c-13 -10 -23 -20 -23 -23 0 -13 34 -15 51 -4 15 11 16 17
6 30 -11 15 -14 14 -34 -3z"/>
<path d="M3766 4366 c4 -10 1 -16 -9 -16 -10 0 -13 -7 -10 -18 2 -10 -3 -24
-11 -32 -13 -10 -14 -16 -4 -28 8 -10 9 -13 1 -9 -6 4 -22 3 -35 -2 l-23 -10
23 0 c13 -1 22 -7 22 -17 0 -8 -3 -13 -7 -11 -5 3 -17 1 -28 -4 -16 -6 -11 -8
20 -10 27 -1 32 -3 16 -6 -17 -3 -20 -7 -11 -13 9 -6 5 -12 -16 -24 l-29 -15
25 -2 c53 -3 85 17 73 47 -3 8 0 14 7 14 7 0 10 7 6 15 -3 8 -1 15 4 15 6 0
10 7 10 15 0 8 -5 15 -10 15 -7 0 -6 8 2 23 7 12 11 26 10 30 -1 4 -4 17 -6
29 -1 12 -8 24 -14 26 -7 2 -10 -3 -6 -12z"/>
<path d="M1400 4300 c0 -5 5 -10 11 -10 5 0 7 5 4 10 -3 6 -8 10 -11 10 -2 0
-4 -4 -4 -10z"/>
<path d="M3310 4300 c0 -5 7 -7 15 -4 8 4 15 8 15 10 0 2 -7 4 -15 4 -8 0 -15
-4 -15 -10z"/>
<path d="M3279 4223 c-13 -16 -12 -17 4 -4 16 13 21 21 13 21 -2 0 -10 -8 -17
-17z"/>
<path d="M1478 4171 c49 -42 141 -95 150 -86 3 3 -4 8 -16 12 -12 3 -22 9 -22
13 0 8 -136 100 -147 100 -5 -1 11 -18 35 -39z"/>
<path d="M3700 4128 c-21 -9 -22 -12 -7 -15 18 -5 18 -5 0 -18 -24 -17 -12
-28 21 -19 20 5 24 9 16 19 -8 9 -5 14 12 19 19 5 20 8 8 16 -18 12 -18 12
-50 -2z"/>
<path d="M3630 4070 c-13 -8 -12 -10 3 -10 9 0 17 5 17 10 0 12 -1 12 -20 0z"/>
<path d="M3705 4060 c-3 -5 -1 -10 4 -10 6 0 11 5 11 10 0 6 -2 10 -4 10 -3 0
-8 -4 -11 -10z"/>
<path d="M1475 4040 c3 -5 11 -10 16 -10 6 0 7 5 4 10 -3 6 -11 10 -16 10 -6
0 -7 -4 -4 -10z"/>
<path d="M3684 4026 c-3 -8 -15 -18 -26 -22 -28 -9 -15 -16 15 -9 27 7 43 30
26 40 -5 4 -12 -1 -15 -9z"/>
<path d="M3663 3951 c-7 -10 -9 -21 -6 -25 9 -9 43 14 43 29 0 21 -23 19 -37
-4z"/>
<path d="M3630 3900 c-24 -8 -24 -8 -2 -9 12 -1 22 -6 22 -13 0 -15 13 -1 16
17 2 16 1 17 -36 5z"/>
<path d="M1785 3880 c3 -5 8 -10 11 -10 2 0 4 5 4 10 0 6 -5 10 -11 10 -5 0
-7 -4 -4 -10z"/>
<path d="M3616 3865 c4 -10 0 -15 -14 -15 -12 0 -24 -4 -27 -10 -4 -6 6 -7 27
-4 34 7 63 24 39 24 -7 0 -9 5 -6 10 3 6 -1 10 -9 10 -10 0 -13 -6 -10 -15z"/>
<path d="M3588 3823 c-9 -2 -19 -11 -22 -19 -5 -12 -1 -14 17 -9 12 4 29 13
37 21 13 12 13 14 0 13 -8 -1 -22 -3 -32 -6z"/>
<path d="M3588 3765 c-7 -16 -19 -25 -35 -25 -12 0 -23 -4 -23 -10 0 -12 30
-13 45 -2 12 8 37 62 30 62 -3 0 -11 -11 -17 -25z"/>
<path d="M3505 3770 c-3 -5 1 -10 10 -10 9 0 13 5 10 10 -3 6 -8 10 -10 10 -2
0 -7 -4 -10 -10z"/>
<path d="M1870 3746 c0 -2 8 -10 18 -17 15 -13 16 -12 3 4 -13 16 -21 21 -21
13z"/>
<path d="M3405 3620 c-3 -5 -1 -10 4 -10 6 0 11 5 11 10 0 6 -2 10 -4 10 -3 0
-8 -4 -11 -10z"/>
<path d="M1639 3586 c14 -14 26 -24 29 -22 7 8 -8 25 -31 37 -21 11 -21 10 2
-15z"/>
<path d="M3395 3579 c-4 -6 -5 -12 -2 -15 2 -3 7 2 10 11 7 17 1 20 -8 4z"/>
<path d="M3262 3558 c2 -6 10 -14 16 -16 7 -2 10 2 6 12 -7 18 -28 22 -22 4z"/>
<path d="M3340 3525 c-13 -14 -21 -25 -18 -25 3 0 17 11 32 25 15 14 23 25 18
25 -5 0 -19 -11 -32 -25z"/>
<path d="M3255 3510 c-3 -10 -12 -17 -19 -14 -13 5 -66 -82 -66 -110 0 -9 -5
-16 -11 -16 -8 0 -10 -14 -6 -40 3 -22 1 -42 -4 -46 -5 -3 -6 3 -3 13 5 16 4
16 -10 -1 -9 -11 -17 -29 -18 -40 -4 -68 -7 -85 -16 -121 -6 -22 -9 -42 -6
-44 3 -3 7 5 11 17 3 12 10 22 15 22 5 0 7 9 3 19 -3 11 0 23 6 27 9 5 10 2 6
-9 -8 -21 3 -22 29 -1 10 8 13 13 7 9 -25 -12 -13 24 20 62 17 21 35 40 40 41
4 2 5 7 2 12 -2 4 4 15 15 25 27 24 26 48 0 40 -26 -8 -25 1 5 53 13 23 20 40
16 37 -5 -2 -8 9 -6 26 1 17 8 34 14 39 10 5 9 9 -3 13 -9 4 -17 -1 -21 -13z
m-11 -39 c3 -5 -1 -11 -9 -15 -15 -6 -29 7 -18 18 9 9 21 8 27 -3z m-51 -76
c-3 -9 -8 -14 -10 -11 -3 3 -2 9 2 15 9 16 15 13 8 -4z m56 -58 c-9 -7 -22
-25 -30 -41 -8 -16 -20 -32 -28 -34 -9 -3 -6 7 9 29 23 34 49 59 59 59 3 0 -1
-6 -10 -13z m-84 -106 c-3 -6 -11 -11 -17 -11 -6 0 -6 6 2 15 14 17 26 13 15
-4z"/>
<path d="M1930 3476 c0 -22 3 -27 11 -19 8 8 8 16 0 30 -9 16 -10 14 -11 -11z"/>
<path d="M3344 3492 c4 -7 1 -12 -8 -12 -9 0 -16 -4 -16 -10 0 -5 -5 -10 -11
-10 -5 0 -7 5 -3 12 4 7 3 8 -5 4 -6 -4 -9 -12 -5 -17 3 -5 0 -16 -6 -24 -22
-27 -2 -16 35 19 25 24 32 37 24 42 -8 4 -9 3 -5 -4z"/>
<path d="M1941 3418 c-1 -15 4 -30 9 -33 12 -7 12 12 0 40 -8 18 -9 17 -9 -7z"/>
<path d="M3266 3395 c-3 -8 -1 -15 3 -15 5 0 11 7 15 15 3 8 1 15 -3 15 -5 0
-11 -7 -15 -15z"/>
<path d="M3005 3369 c-4 -6 -5 -12 -2 -15 2 -3 7 2 10 11 7 17 1 20 -8 4z"/>
<path d="M3289 3353 c-13 -16 -12 -17 4 -4 16 13 21 21 13 21 -2 0 -10 -8 -17
-17z"/>
<path d="M3200 3220 c-9 -6 -10 -10 -3 -10 6 0 15 5 18 10 8 12 4 12 -15 0z"/>
<path d="M2446 3131 c-10 -11 -23 -18 -28 -15 -11 7 -37 -25 -38 -45 0 -8 6
-11 15 -7 9 3 15 -1 15 -11 0 -13 3 -13 15 -3 8 7 15 9 15 4 0 -10 86 -11 96
-2 9 10 -41 93 -57 96 -9 1 -23 -6 -33 -17z"/>
<path d="M2981 3114 c0 -11 3 -14 6 -6 3 7 2 16 -1 19 -3 4 -6 -2 -5 -13z"/>
<path d="M3010 3085 c0 -8 -5 -15 -10 -15 -7 0 -7 -6 -1 -19 6 -10 8 -21 6
-25 -3 -3 -1 -3 4 1 13 12 22 73 11 73 -6 0 -10 -7 -10 -15z"/>
<path d="M2331 3071 c-1 -8 -7 -11 -17 -7 -10 4 -14 1 -12 -6 4 -11 20 -13 58
-9 6 1 10 8 10 17 0 13 -3 14 -14 5 -11 -9 -15 -9 -19 1 -4 10 -6 10 -6 -1z"/>
<path d="M2250 3039 c7 -11 14 -18 17 -15 8 8 -5 36 -17 36 -7 0 -7 -6 0 -21z"/>
<path d="M2386 3017 c3 -10 9 -15 12 -12 3 3 0 11 -7 18 -10 9 -11 8 -5 -6z"/>
<path d="M2410 3021 c0 -5 5 -13 10 -16 6 -3 10 -2 10 4 0 5 -4 13 -10 16 -5
3 -10 2 -10 -4z"/>
<path d="M2485 3020 c3 -5 8 -10 11 -10 2 0 4 5 4 10 0 6 -5 10 -11 10 -5 0
-7 -4 -4 -10z"/>
<path d="M2510 2999 c0 -11 4 -18 10 -14 5 3 7 12 3 20 -7 21 -13 19 -13 -6z"/>
<path d="M2543 2992 c0 -9 5 -24 12 -32 11 -12 11 -22 0 -54 -8 -21 -18 -42
-22 -45 -15 -10 -35 -68 -30 -88 4 -16 5 -15 6 3 0 11 10 29 20 41 25 27 81
140 81 164 0 24 -20 25 -21 2 0 -15 -2 -15 -9 2 -5 11 -9 16 -9 11 -1 -5 -7
-3 -14 3 -11 8 -14 7 -14 -7z"/>
<path d="M2626 2993 c-3 -8 -6 -21 -6 -30 0 -14 -21 -67 -42 -106 -8 -16 -4
-38 5 -26 16 21 57 125 53 135 -8 21 12 26 23 7 9 -16 10 -16 11 3 0 26 -36
39 -44 17z"/>
<path d="M2476 2985 c4 -8 8 -15 10 -15 2 0 4 7 4 15 0 8 -4 15 -10 15 -5 0
-7 -7 -4 -15z"/>
<path d="M2216 2977 c3 -10 9 -15 12 -12 3 3 0 11 -7 18 -10 9 -11 8 -5 -6z"/>
<path d="M2400 2973 c0 -13 5 -23 11 -23 5 0 8 -4 4 -9 -3 -5 -1 -12 5 -16 14
-9 12 8 -5 41 -14 27 -15 27 -15 7z"/>
<path d="M2450 2961 c0 -6 4 -11 10 -11 5 0 7 -13 4 -30 -4 -19 -2 -30 5 -30
16 0 13 56 -4 70 -10 9 -15 9 -15 1z"/>
<path d="M2141 2936 c7 -15 15 -23 17 -16 3 7 -3 19 -13 28 -15 16 -16 15 -4
-12z"/>
<path d="M2490 2946 c0 -8 5 -18 10 -21 6 -3 10 3 10 14 0 12 -4 21 -10 21 -5
0 -10 -6 -10 -14z"/>
<path d="M2532 2930 c0 -19 2 -27 5 -17 2 9 2 25 0 35 -3 9 -5 1 -5 -18z"/>
<path d="M3030 2942 c0 -18 12 -42 21 -42 14 0 10 26 -6 40 -9 8 -15 8 -15 2z"/>
<path d="M2677 2933 c-4 -3 -6 -27 -6 -52 l2 -46 7 50 c8 53 7 59 -3 48z"/>
<path d="M2642 2913 c-7 -12 -12 -31 -12 -42 0 -12 -4 -21 -8 -21 -4 0 -8 -10
-9 -21 -2 -22 -2 -22 14 1 16 22 17 23 24 4 7 -18 8 -17 8 3 1 12 -4 23 -10
25 -9 3 -9 10 0 27 7 12 11 27 8 34 -2 7 -9 3 -15 -10z"/>
<path d="M2771 2913 c-1 -6 -4 -20 -7 -30 -5 -17 -5 -17 6 0 6 10 9 23 6 30
-3 9 -5 9 -5 0z"/>
<path d="M2816 2903 c-4 -9 -2 -21 4 -27 7 -7 10 -2 10 17 0 31 -5 34 -14 10z"/>
<path d="M2380 2883 c0 -18 2 -33 4 -33 9 0 13 39 5 51 -6 10 -9 4 -9 -18z"/>
<path d="M2790 2871 c0 -12 5 -21 10 -21 6 0 10 6 10 14 0 8 -4 18 -10 21 -5
3 -10 -3 -10 -14z"/>
<path d="M2415 2860 c-4 -12 -5 -24 -2 -27 3 -2 8 5 12 17 4 12 5 24 2 27 -3
2 -8 -5 -12 -17z"/>
<path d="M2155 2840 c-6 -27 1 -49 38 -127 6 -13 12 -21 15 -19 2 3 0 11 -4
18 -5 7 -10 24 -12 37 -2 13 -10 37 -18 52 -18 36 -18 38 9 33 12 -2 16 -2 10
2 -7 3 -13 12 -13 20 0 26 -18 14 -25 -16z"/>
<path d="M2829 2829 c-7 -24 -19 -53 -26 -64 -7 -11 -13 -26 -12 -35 0 -13 1
-13 6 0 4 8 15 21 25 28 10 7 16 18 12 23 -3 5 0 16 6 24 7 8 9 15 5 15 -4 0
-2 7 5 15 10 11 10 19 2 27 -7 7 -14 -2 -23 -33z"/>
<path d="M2630 2807 c0 -10 -6 -14 -14 -11 -10 4 -17 -9 -25 -46 -6 -28 -11
-59 -10 -68 1 -22 21 37 21 61 -1 19 17 24 19 5 1 -7 5 5 10 26 5 21 7 41 4
44 -3 3 -5 -2 -5 -11z"/>
<path d="M2770 2780 c-19 -22 -34 -44 -32 -50 1 -5 -2 -10 -8 -10 -5 0 -10 -4
-10 -9 0 -20 42 3 51 28 6 14 17 34 26 43 8 9 13 21 12 27 -2 5 -20 -8 -39
-29z"/>
<path d="M2772 2660 c0 -14 2 -19 5 -12 2 6 2 18 0 25 -3 6 -5 1 -5 -13z"/>
<path d="M2532 2654 c-7 -8 -12 -19 -10 -25 2 -6 12 -2 21 9 10 11 15 22 10
25 -4 3 -14 -2 -21 -9z"/>
<path d="M2539 2613 c-7 -18 -6 -30 1 -37 7 -7 10 -5 10 7 0 9 5 17 10 17 6 0
10 9 10 20 0 29 -19 25 -31 -7z"/>
<path d="M3128 2594 c-27 -26 -48 -51 -48 -56 0 -5 -4 -7 -8 -4 -9 5 -13 -20
-12 -89 0 -27 -7 -65 -15 -82 -12 -25 -13 -38 -5 -53 8 -14 8 -35 2 -63 -5
-25 -5 -53 1 -70 6 -18 5 -38 -2 -59 -9 -26 -8 -33 7 -44 21 -16 48 -18 57 -4
4 6 11 8 16 5 5 -4 9 1 9 9 0 8 -5 18 -11 22 -8 5 -7 9 1 14 7 5 33 0 57 -11
76 -32 109 -23 133 39 14 35 8 116 -11 138 -6 7 -12 57 -15 111 -2 63 -8 101
-16 108 -7 5 -22 27 -33 48 -16 30 -17 41 -8 56 10 16 9 20 -3 25 -32 12 -50
5 -96 -40z m78 -232 c-13 -12 -33 20 -28 46 l5 27 14 -34 c8 -18 12 -36 9 -39z"/>
<path d="M2866 2464 c-10 -25 1 -29 14 -5 6 12 7 21 1 21 -5 0 -12 -7 -15 -16z"/>
<path d="M2870 2430 c-8 -5 -12 -12 -9 -15 4 -3 12 1 19 10 14 17 11 19 -10 5z"/>
<path d="M2832 2351 c-6 -15 -20 -38 -33 -50 -12 -11 -20 -23 -18 -26 8 -7 53
46 67 78 6 15 8 27 3 27 -5 0 -14 -13 -19 -29z"/>
<path d="M2838 2303 c-9 -10 -13 -24 -11 -31 3 -7 -1 -11 -7 -10 -7 2 -22 -23
-34 -58 -11 -33 -28 -72 -37 -85 -9 -13 -21 -35 -28 -49 l-12 -25 22 25 c12
14 26 24 30 23 5 -2 8 0 7 5 -4 10 32 97 84 205 5 9 7 17 5 17 -2 0 -11 -8
-19 -17z"/>
<path d="M2866 2285 c-9 -26 -7 -32 5 -12 6 10 9 21 6 23 -2 3 -7 -2 -11 -11z"/>
<path d="M2758 2243 c-8 -10 -19 -29 -23 -43 -4 -14 -13 -38 -20 -55 -32 -77
-35 -88 -31 -92 6 -6 66 114 69 139 2 9 9 23 16 32 19 23 9 41 -11 19z"/>
<path d="M2840 2239 c0 -5 5 -7 10 -4 6 3 10 8 10 11 0 2 -4 4 -10 4 -5 0 -10
-5 -10 -11z"/>
<path d="M2819 2203 c-1 -10 -1 -21 0 -25 0 -4 -8 -22 -19 -40 -24 -39 -25
-49 -5 -42 8 4 12 10 9 15 -3 5 -1 9 4 9 11 0 45 71 37 78 -3 3 -5 0 -5 -6 0
-7 -5 -12 -10 -12 -7 0 -7 6 0 20 7 14 7 20 0 20 -5 0 -11 -8 -11 -17z"/>
<path d="M2843 2134 c-7 -7 -13 -19 -13 -26 0 -7 7 -2 16 10 18 26 16 37 -3
16z"/>
<path d="M2750 2069 c0 -5 5 -7 10 -4 6 3 10 8 10 11 0 2 -4 4 -10 4 -5 0 -10
-5 -10 -11z"/>
<path d="M2657 2041 c-4 -17 -3 -21 5 -13 5 5 8 16 6 23 -3 8 -7 3 -11 -10z"/>
<path d="M3190 2050 c0 -5 7 -10 15 -10 8 0 15 5 15 10 0 6 -7 10 -15 10 -8 0
-15 -4 -15 -10z"/>
<path d="M3758 2053 c6 -2 18 -2 25 0 6 3 1 5 -13 5 -14 0 -19 -2 -12 -5z"/>
<path d="M3663 2043 c9 -2 25 -2 35 0 9 3 1 5 -18 5 -19 0 -27 -2 -17 -5z"/>
<path d="M2621 2024 c0 -11 3 -14 6 -6 3 7 2 16 -1 19 -3 4 -6 -2 -5 -13z"/>
<path d="M3593 2033 c9 -2 23 -2 30 0 6 3 -1 5 -18 5 -16 0 -22 -2 -12 -5z"/>
<path d="M3538 2023 c6 -2 18 -2 25 0 6 3 1 5 -13 5 -14 0 -19 -2 -12 -5z"/>
<path d="M3450 2010 c-20 -6 -21 -8 -5 -8 11 0 34 4 50 8 27 7 27 8 5 8 -14 0
-36 -4 -50 -8z"/>
<path d="M3148 2003 c7 -3 16 -2 19 1 4 3 -2 6 -13 5 -11 0 -14 -3 -6 -6z"/>
<path d="M3200 1999 c0 -6 7 -9 15 -5 22 8 18 -3 -7 -25 l-23 -20 30 17 c42
25 41 24 25 34 -20 13 -40 12 -40 -1z"/>
<path d="M2567 1985 c3 -11 12 -29 20 -40 13 -19 13 -19 13 2 0 12 3 30 6 40
5 17 5 17 -6 0 -11 -18 -12 -18 -26 0 -13 17 -14 17 -7 -2z"/>
<path d="M1448 1983 c29 -2 74 -2 100 0 26 2 2 3 -53 3 -55 0 -76 -1 -47 -3z"/>
<path d="M1618 1973 c12 -2 30 -2 40 0 9 3 -1 5 -23 4 -22 0 -30 -2 -17 -4z"/>
<path d="M2971 1903 c-40 -21 -67 -39 -62 -41 6 -2 23 3 38 12 15 8 47 24 71
36 40 20 52 30 33 30 -5 0 -41 -17 -80 -37z"/>
<path d="M2723 1915 c4 -5 0 -19 -8 -32 -9 -13 -11 -23 -5 -23 6 0 13 6 16 14
3 8 14 16 25 19 10 3 19 11 18 19 0 10 -2 10 -6 1 -3 -10 -10 -10 -26 -2 -12
7 -19 8 -14 4z"/>
<path d="M2821 1897 c-11 -13 -21 -26 -21 -30 0 -11 49 15 54 29 9 24 -10 24
-33 1z"/>
<path d="M3026 1891 c-45 -16 -74 -41 -47 -41 6 0 11 4 11 9 0 5 23 17 50 26
28 9 50 18 50 21 0 6 -11 4 -64 -15z"/>
<path d="M3230 1881 c0 -5 5 -13 10 -16 6 -3 10 -2 10 4 0 5 -4 13 -10 16 -5
3 -10 2 -10 -4z"/>
<path d="M2931 1846 c-10 -12 -8 -13 8 -9 12 3 21 9 21 14 0 14 -16 11 -29 -5z"/>
<path d="M2993 1833 c-10 -3 -9 -8 2 -20 8 -8 15 -25 15 -39 0 -19 6 -26 30
-30 40 -8 45 -7 45 14 0 11 -8 17 -23 16 -26 -1 -29 11 -4 26 13 8 13 10 2 9
-30 -3 -39 1 -34 16 6 15 -8 19 -33 8z"/>
<path d="M2335 1810 c3 -5 8 -10 11 -10 2 0 4 5 4 10 0 6 -5 10 -11 10 -5 0
-7 -4 -4 -10z"/>
<path d="M2621 1464 c0 -11 3 -14 6 -6 3 7 2 16 -1 19 -3 4 -6 -2 -5 -13z"/>
<path d="M3107 1304 c6 -15 23 -19 23 -5 0 5 -7 11 -14 14 -10 4 -13 1 -9 -9z"/>
<path d="M3433 1282 c-1 -16 44 -59 53 -50 2 3 -9 19 -24 36 -21 24 -28 27
-29 14z"/>
<path d="M3330 1192 c0 -4 12 -21 28 -37 15 -16 26 -33 24 -37 -3 -10 50 -70
56 -64 2 3 -6 22 -18 43 l-22 38 37 -40 c32 -34 36 -37 30 -15 -10 34 -34 60
-56 60 -10 0 -28 14 -41 30 -21 29 -38 39 -38 22z"/>
<path d="M3240 1171 c0 -6 4 -13 10 -16 6 -3 7 1 4 9 -7 18 -14 21 -14 7z"/>
<path d="M3460 1171 c0 -6 4 -13 10 -16 6 -3 7 1 4 9 -7 18 -14 21 -14 7z"/>
<path d="M1935 1135 c-9 -20 -14 -39 -11 -42 3 -3 8 3 11 13 4 10 11 27 16 37
6 11 8 21 6 23 -2 3 -12 -12 -22 -31z"/>
<path d="M3161 1115 c0 -5 8 -26 19 -45 13 -24 19 -29 20 -16 0 15 3 16 15 6
19 -16 19 -7 0 30 -18 35 -25 39 -18 10 7 -27 -11 -25 -25 3 -6 12 -11 18 -11
12z"/>
<path d="M3300 1106 c0 -2 8 -10 18 -17 15 -13 16 -12 3 4 -13 16 -21 21 -21
13z"/>
<path d="M3357 1088 c62 -71 66 -74 54 -51 -12 24 -58 73 -68 73 -4 0 3 -10
14 -22z"/>
<path d="M3313 1035 c20 -49 91 -158 95 -146 5 14 -43 102 -79 143 l-29 33 13
-30z"/>
<path d="M3247 1043 c-3 -3 4 -18 15 -34 21 -28 38 -37 38 -20 0 12 -47 61
-53 54z"/>
<path d="M1896 1027 c3 -10 9 -15 12 -12 3 3 0 11 -7 18 -10 9 -11 8 -5 -6z"/>
<path d="M2036 1027 c3 -10 9 -15 12 -12 3 3 0 11 -7 18 -10 9 -11 8 -5 -6z"/>
<path d="M3080 1031 c0 -5 5 -13 10 -16 6 -3 10 -2 10 4 0 5 -4 13 -10 16 -5
3 -10 2 -10 -4z"/>
<path d="M1977 1006 c-4 -10 -1 -13 8 -9 8 3 12 9 9 14 -7 12 -11 11 -17 -5z"/>
<path d="M2081 1004 c0 -11 3 -14 6 -6 3 7 2 16 -1 19 -3 4 -6 -2 -5 -13z"/>
<path d="M1878 983 c-29 -35 -55 -137 -38 -148 6 -3 10 2 10 12 0 11 4 23 8
29 5 5 14 22 20 37 9 21 9 27 0 21 -8 -5 -9 -2 -5 10 4 10 7 20 7 22 0 3 4 3
8 0 4 -2 9 4 9 15 2 23 0 24 -19 2z"/>
<path d="M3380 991 c0 -5 5 -13 10 -16 6 -3 10 -2 10 4 0 5 -4 13 -10 16 -5 3
-10 2 -10 -4z"/>
<path d="M1916 963 c-6 -14 -5 -15 5 -6 7 7 10 15 7 18 -3 3 -9 -2 -12 -12z"/>
<path d="M3190 967 c0 -16 58 -73 66 -65 3 3 -11 22 -30 42 -20 19 -36 30 -36
23z"/>
<path d="M3260 977 c0 -5 9 -20 20 -34 11 -14 20 -22 20 -17 -1 12 -39 61 -40
51z"/>
<path d="M3310 968 c0 -9 7 -22 17 -29 15 -13 15 -12 3 11 -17 34 -20 36 -20
18z"/>
<path d="M1900 910 c0 -11 2 -20 4 -20 2 0 6 9 9 20 3 11 1 20 -4 20 -5 0 -9
-9 -9 -20z"/>
<path d="M2490 916 c0 -8 5 -18 10 -21 6 -3 10 1 10 9 0 8 -4 18 -10 21 -5 3
-10 -1 -10 -9z"/>
<path d="M3080 919 c0 -4 7 -22 15 -40 8 -19 14 -27 14 -19 0 14 -28 72 -29
59z"/>
<path d="M3045 878 c-4 -18 -11 -38 -16 -43 -4 -6 -4 -28 1 -49 11 -48 22 -60
14 -15 l-5 34 16 -32 c9 -17 26 -40 36 -49 20 -18 20 -17 10 9 -6 15 -17 37
-25 49 -8 14 -13 45 -12 76 1 58 -9 69 -19 20z"/>
<path d="M2061 884 c0 -11 3 -14 6 -6 3 7 2 16 -1 19 -3 4 -6 -2 -5 -13z"/>
<path d="M2841 886 c-9 -10 -9 -16 -1 -21 17 -10 37 12 24 25 -8 8 -15 6 -23
-4z"/>
<path d="M3155 868 c2 -13 9 -36 16 -53 17 -41 25 -8 9 40 -13 39 -29 47 -25
13z"/>
<path d="M2502 855 c0 -16 2 -22 5 -12 2 9 2 23 0 30 -3 6 -5 -1 -5 -18z"/>
<path d="M2735 860 c-10 -11 -22 -17 -26 -14 -5 3 -9 0 -9 -5 0 -6 3 -11 8
-11 13 1 57 38 51 44 -3 4 -14 -3 -24 -14z"/>
<path d="M2092 840 c0 -14 2 -19 5 -12 2 6 2 18 0 25 -3 6 -5 1 -5 -13z"/>
<path d="M2910 843 c-19 -2 -41 -11 -47 -20 -15 -20 -17 -37 -3 -28 6 3 10 -2
10 -11 0 -13 8 -8 26 17 23 29 25 31 19 9 -4 -14 -6 -23 -3 -20 7 8 39 60 36
58 -2 0 -19 -3 -38 -5z"/>
<path d="M3316 825 c4 -8 11 -15 16 -15 6 0 5 6 -2 15 -7 8 -14 15 -16 15 -2
0 -1 -7 2 -15z"/>
<path d="M1981 794 c0 -11 3 -14 6 -6 3 7 2 16 -1 19 -3 4 -6 -2 -5 -13z"/>
<path d="M3260 806 c0 -2 7 -9 15 -16 13 -11 14 -10 9 4 -5 14 -24 23 -24 12z"/>
<path d="M3122 770 c0 -14 2 -19 5 -12 2 6 2 18 0 25 -3 6 -5 1 -5 -13z"/>
<path d="M2334 758 c-4 -7 -4 -10 1 -6 4 4 14 3 22 -4 7 -6 16 -8 19 -5 3 3
-3 10 -15 16 -15 8 -22 8 -27 -1z"/>
<path d="M2986 671 c4 -91 15 -115 50 -107 12 3 24 1 26 -4 2 -6 26 -12 53
-14 28 -2 62 -9 78 -15 23 -9 27 -8 27 6 0 14 2 14 15 -3 21 -28 18 -11 -10
50 -27 60 -29 66 -17 66 4 0 13 -15 20 -34 7 -18 20 -41 30 -50 18 -15 19 -15
17 6 -2 13 -7 22 -13 21 -6 -2 -16 13 -22 32 -6 19 -16 35 -21 35 -5 0 -9 6
-9 14 0 14 -39 67 -40 53 0 -4 6 -23 14 -42 9 -21 11 -37 5 -40 -8 -6 -29 34
-29 54 0 5 -7 14 -15 21 -13 11 -13 8 -2 -26 17 -47 28 -116 19 -110 -4 2 -16
22 -27 43 -10 21 -27 49 -37 62 l-18 24 2 -23 c4 -35 -18 -34 -28 1 -11 38
-34 51 -34 19 0 -18 -2 -19 -14 -8 -8 8 -16 23 -19 34 -3 10 -3 -19 -1 -65z
m51 27 c-3 -8 -6 -5 -6 6 -1 11 2 17 5 13 3 -3 4 -12 1 -19z m-10 -65 c-3 -10
-5 -4 -5 12 0 17 2 24 5 18 2 -7 2 -21 0 -30z"/>
<path d="M3037 553 c-8 -12 41 -89 50 -80 6 7 -16 57 -26 57 -5 0 -11 8 -13
18 -3 12 -6 14 -11 5z"/>
<path d="M3471 493 c-8 -15 -5 -18 19 -18 27 0 27 1 13 18 -9 9 -17 17 -19 17
-2 0 -8 -8 -13 -17z"/>
<path d="M3513 249 c4 -15 0 -19 -20 -19 -19 0 -24 -4 -19 -16 3 -9 6 -20 6
-26 0 -7 4 -7 13 0 7 6 18 7 26 3 14 -9 41 -5 76 9 11 4 29 11 40 15 20 7 20
7 -1 15 -12 5 -25 13 -29 19 -3 6 -11 9 -16 6 -5 -3 -25 -2 -45 4 -33 9 -36 8
-31 -10z"/>
<path d="M1130 200 c6 -11 13 -20 16 -20 2 0 0 9 -6 20 -6 11 -13 20 -16 20
-2 0 0 -9 6 -20z"/>
</g>
</svg>
